<?xml version="1.0" encoding="utf-8"?>
<!-- Generator: Adobe Illustrator 25.0.1, SVG Export Plug-In . SVG Version: 6.00 Build 0)  -->
<svg version="1.1" id="Capa_1" xmlns="http://www.w3.org/2000/svg" xmlns:xlink="http://www.w3.org/1999/xlink" x="0px" y="0px"
	 viewBox="0 0 1024 747" style="enable-background:new 0 0 1024 747;" xml:space="preserve">
<style type="text/css">
	.st0{fill:#2B8B4B;}
	.st1{fill:#F8DB66;}
	.st2{fill-rule:evenodd;clip-rule:evenodd;fill:#F8DB66;}
</style>
<polygon class="st0" points="792.7,729.2 222.8,729.2 222.8,205.5 507.8,14 792.7,205.5 "/>
<g>
	<g>
		<path class="st1" d="M401.3,354.3v26.9c3.4-2.4,7.3-4.9,11.8-7.4C410.1,370.5,404.5,363.5,401.3,354.3z M401.3,437.5L401.3,437.5
			L401.3,437.5L401.3,437.5z M444.4,288.8c10.4-5.1,22.5-8.1,33.9-8.2c-5.6-12.3-7.5-22-7.5-22s-13.7-3-14.5-6.3
			c0,0,0.6-11.5,14.4-22h-69.5v97.7C406,315.3,418.2,301.6,444.4,288.8z M506.9,308.4c0.5-4.9-0.1-8.6-1.6-10
			c-3.3-3.2-7.1-5.4-11.5-6.9C497.2,297.6,501.6,303.5,506.9,308.4z M606.9,359.5v-47.3c-7.4-5-19.6-6.6-36.7-4
			c14.5-6.1,26.8-8.8,36.7-8.6v-69.4H488.5c-6.9,3.7-13.3,9.3-18.7,17.6c-0.5,0.7,10.5,5.8,10.5,5.8c0,0,2,13.1,8.3,27.7
			c9.9,1.7,18.6,6.2,24.4,14.2c1.7,2.3,3.2,9.1,1.4,18.7c0.6,0.4,1.3,0.8,2,1.2c12.6-3.7,21.9-17,21.9-17c0,0-1.1,16-21.3,24.6
			c-1.4-0.7-2.8-1.5-4.1-2.3c-4.3,13.9-15.2,32-39.3,51.3c-17.9-5.7-21.1-16.3-21.1-16.3c7.8,9.2,20.6,9.1,20.6,9.1
			c19-14.8,29-34.6,32.5-48.9c-10.1-7.7-17.4-17.2-22.6-26.3c-10.5-0.5-22.6,2.4-34.8,7.9c-59.6,26.7-40.7,66.1-34.6,76
			c5.5-3.1,11.9-6.3,19.2-9.5c-15.6,9.1-25.5,18.2-31.5,26.7v46.7c0,0,0,0,0,0h143.1C575,407.7,596,380.9,606.9,359.5z M506.7,237.4
			c28.3-10.2,46.9,4.3,46.9,4.3s-16.1-3.3-31.1,0.8L506.7,237.4z M430.8,354.9c0,0-25.9-27.7,40-45
			C424.2,332.9,430.8,354.9,430.8,354.9z M446.6,328.5c0,0,9.8,30.4-14.9,45.8C431.6,374.4,443.2,354.4,446.6,328.5z M448.7,437.5
			h-16.9c0,0,21.1-35.8,59.5-41.8C491.3,395.7,462.9,405.5,448.7,437.5z M499.3,353.7c13.7-11.8,29.6-8.8,34.8-1.8
			c7.5,10,2.5,20.9-6.4,29c0,0,11.1-12.2,2.4-23.8c-3.7-4.9-15.2-7.5-25.3,1c-10.1,8.5-16.1,26.8,2.5,34.1
			C485.4,392.9,481.8,368.8,499.3,353.7z M516.9,437.4l-16.3,0.1c55.4-28.8,33-59.2,33-59.2S566.6,407.7,516.9,437.4z M534.8,256.3
			l-14.4-5.6c26.9-3.9,33,5,33,5S547.6,253.9,534.8,256.3z M550.4,265.4c2.1,22.4,17.4,43.9,17.4,43.9s-15-8.3-19.8-20.5
			C543.1,276.2,550.4,265.4,550.4,265.4z M555.4,437.5h51.5v-50.3C594.4,403,577.4,420,555.4,437.5z M401.3,390.8v-9.6
			c-46.5,33,0,56.3,0,56.3v0C401.3,437.4,383,416.8,401.3,390.8z M606.9,299.6v12.6c11.7,8,11.5,24.7,0,47.3v27.7
			C646.4,337.7,641.9,300.4,606.9,299.6z M505.8,472.3c18.7-11.7,35.2-23.4,49.6-34.8h-11C532.9,448.7,520,460.4,505.8,472.3z
			 M401.3,354.3v-26.4C397.8,337.6,398.7,346.7,401.3,354.3z M547.1,230.2c0,0-24-22.3-58.5-9.5c-7.5,2.8-13.3,6.1-17.7,9.5h17.7
			C514.7,216.2,547.1,230.2,547.1,230.2z"/>
	</g>
</g>
<g>
	<path class="st1" d="M747.5,624.7c-4.2-0.7-9-5.4-15-14.2c-3.5-5.7-7-11.5-10.5-17.4c10.9-2,16.2-8.2,16.1-17.8
		c0-5.9-2.7-10.5-7.9-13.3c-4.1-2.4-9.3-3.5-15.6-3.5c-2.5,0-6.2,0.1-11.1,0.3c-11.1,0.4-20,0-23.3-0.3l-0.7-0.1v2.2
		c0,0,11.2,1.8,11.2,5.5c0.1,0.7,0.2,4,0.2,8.8v38.6c0,3.6-0.3,5.9-0.7,7c-0.8,2.6-9,4.4-9,4.4l-0.4,2.6l0.8-0.1
		c5.5-0.5,10.9-0.7,16.1-0.7c5.2,0,10.3,0.2,15.3,0.7l0.7,0.1v-2.3c0,0-8-2.5-10.2-4c-1.1-0.8-1.3-2.7-1.3-5.6c0-0.5,0-2.3,0.1-4.4
		c0.1-2.2,0.1-4.1,0.1-5.7v-10.7l7,0c8.3,11.1,14.5,21.3,21,32.3l0.2,0.4c0,0,5.8-0.4,8.6-0.4c2.8,0,5.8,0.1,8.2,0.3l0.7,0.1l0-2.7
		L747.5,624.7z M709,588.6h-6.7v-24c0,0,9.5-0.1,9.6-0.1c9.8,0.1,14.3,3.9,14.4,12c0,4.9-1.7,8.1-5.1,9.9
		C718.5,587.9,714.4,588.6,709,588.6z"/>
	<path class="st1" d="M320,595.3c-3-1.9-6.1-3.1-10.2-3.8c2.9-0.7,5.3-1.9,7.9-3.5c4.5-2.9,6.8-7.8,6.8-11.7
		c0.1-6.1-2.5-10.9-7.4-14c-4.2-2.8-9.4-3.9-15.7-3.9c-0.1,0-5.6,0.1-16.6,0.3c-1.9,0-3.7,0-5.4,0.1c-6.6,0.1-12-0.4-12-0.4v2.4
		c0,0,10.3,1.4,11.2,6.3c0.1,0.7,0.4,50.5-0.4,52.2c-2,4.3-10.8,5.7-10.8,5.7v2.5c0,0,6.5-0.6,13.7-0.5c1.6,0,3.4,0,5.1,0
		c12,0.3,18.1,0.4,18.2,0.4c6.3,0,11.6-1.5,15.8-4.4c4.9-3.3,7.4-8.1,7.4-14.2C327.7,603,325.1,598.4,320,595.3z M289.3,575.1
		c0-3.3,0.1-6.5,0.3-10.8c2.2-0.1,5-0.2,8.3-0.2c10.3,0.1,14.8,3.4,14.9,12c-0.1,8.1-4.9,11.6-16.1,11.7h-7.2L289.3,575.1z
		 M297.3,621.6L297.3,621.6C297.3,621.6,297.4,621.7,297.3,621.6C297.4,621.7,297.3,621.6,297.3,621.6z M296.8,621.1
		c0,0-0.1,0-0.1,0c0,0-0.1,0-0.1,0c0,0,0.1,0,0.1,0h0c-0.2,0-2.7-0.1-7-0.3c-0.1-2.2-0.1-3.9-0.1-5.9v-19.8h6.6
		c13.4,0.1,19.6,4.6,19.6,13.9C315.6,618,309.7,621,296.8,621.1z"/>
	<path class="st1" d="M381,557.2c-10.6,0-19.1,3.4-25.4,10.2c-6.3,6.7-9.4,15.5-9.4,26.1c0,9.9,3,18.3,9,24.9
		c6.2,6.8,14.3,10.2,24.1,10.2h0c10.4,0,18.9-3.8,25.1-11.4c5.8-7.1,8.7-16,8.7-26.6h0c0-9.7-2.9-17.7-8.6-23.9
		C398.6,560.3,390.7,557.2,381,557.2z M400.3,595.5c0,7.5-1.5,13.6-4.4,18.4c-3.5,5.8-8.6,8.6-15.5,8.6c-7.8,0-13.4-3.8-17.1-11.6
		c-2.7-5.8-4.1-13.2-4.1-22.3c0-7.1,1.7-12.9,5.1-17.5c3.8-5.2,9-7.8,15.6-7.8C393.5,563.3,400.2,573.6,400.3,595.5L400.3,595.5z"/>
	<g>
		<path class="st1" d="M469.1,619.9h-19.6v-43.7c0-5.3,0.1-8,0.2-9.3c0.3-4.4,11.9-6.2,11.9-6.2v-2.2c0,0-12,0.7-17.5,0.7
			c-5.5,0-16.9-0.8-16.9-0.8v2.2c0,0,11.2,1.9,11.2,6.1c0.1,0.7,0.2,3.9,0.2,8.7v37c0,3.6,0.2,5.4-0.7,7.1
			c-2.1,4.1-10.7,5.3-10.7,5.3v2.7l0.7,0c7.1-0.4,15.2-0.6,24-0.6c8.8,0,18.4,0.2,28.5,0.6l0.7,0l0.9-18.3h-2.9
			C479.2,609.1,477.7,620.3,469.1,619.9z"/>
	</g>
	<g>
		<path class="st1" d="M528.1,540.1L528.1,540.1c-0.1-3.1-2.7-5.2-5.3-5.2c-1.9,0-3.5,1.1-5,2.6l-14.4,16.7h5.3l16.4-9.4
			C527.1,543.5,528.1,541.9,528.1,540.1L528.1,540.1z"/>
		<path class="st1" d="M511.5,559.3c-3.9,0-9.2-0.3-15.9-0.8l-0.7-0.1v2.3c0,0,9.3,2.1,10.5,6.9c0.6,2.3,0.3,6.4,0.5,10.7
			c0,0,0.3,15.9,0.2,24.5c-0.1,11.6-0.5,16.7-3.5,19.1c-2.6,2.1-7.7,2.8-7.7,2.8v2.8l0.7-0.1c6.2-0.6,11.6-0.8,15.9-0.8
			c3.8,0,9,0.3,15.5,0.8l0.7,0.1v-2.8c0,0-5.1-0.9-7.8-2.9c-2-1.5-3.4-7.4-3.3-19c0-1.6,0.1-23.6,0.2-24.4c0.1-4.4,0.1-8.4,0.3-10.8
			c0.6-5.5,10.6-6.9,10.6-6.9v-2.3l-0.7,0.1C520.1,559,515,559.3,511.5,559.3z"/>
	</g>
	<g>
		<path class="st1" d="M605.7,560.7l0.5-0.1v-2.3l-0.8,0.1c-3.1,0.4-6.4,0.6-10,0.6c-3.5,0-7.3-0.2-11.3-0.6l-0.7-0.1v2.2l0.5,0.2
			c2.8,0.9,6.7,2.1,6.6,3.5c-1.2,6.2-12.4,34.9-15.3,41.9c-2.2-5.2-16.7-40.7-16.6-41.6c0,0-0.8-1.9,7.7-3.8l0.5-0.1v-2.3
			c0,0-9.6,0.7-14.2,0.7c-11.5,0-14.9-0.7-14.9-0.7v2.2c0,0,6.8,1.7,8.7,6.2c7.1,16.1,15.3,36.8,24,61.4l0.2,0.4h3.3l0.2-0.4
			c6.5-17.7,20.2-53.2,24.3-61.7C599.8,563.6,602.2,561.5,605.7,560.7z"/>
	</g>
	<path class="st1" d="M640.2,556.7l-0.2-0.4h-4.9l-0.2,0.4c-10.7,25.5-14.3,33.2-23.3,54.4c-1.4,3.2-2.1,5.5-3.5,8.2
		c-1.9,3.5-8.5,5.5-8.5,5.5v2.7l0.7-0.1c3.9-0.4,7.8-0.6,11.7-0.6c4,0,8,0.2,12,0.6l0.7,0.1v-2.7l-8.8-3.3c3-7.6,4.8-12.5,6.6-16.7
		l11.5,0.1L647,605c1.8,4,3.6,9.7,5.7,16.5c-3,1.2-6.2,2.2-9.6,3l-0.5,0.1v2.8l0.7-0.1c4.6-0.4,9.6-0.6,14.8-0.6
		c5.2,0,10.5,0.2,16,0.6l0.7,0v-2.7c0,0-6-1.6-8-3.7c-1.5-1.5-3.7-8-3.7-8C648.9,578.7,643.6,565.6,640.2,556.7z M624.5,599.9
		l10.4-26.2l9.9,26.1L624.5,599.9z"/>
</g>
<g>
	<g>
		<g>
			<path class="st1" d="M331.3,517.6c-0.9,1.9-1.5,2.1-1.5,2.1c-1.3,0.6-3,1.1-4.8,1.1c-4.2,0.1-7.8-1.4-9.6-3.7
				c-2.3-3-3-6.4-3.2-10.3c-0.2-4,0.9-7.4,3.1-10.2c2.1-2.7,5.7-4,10.1-4c3,0,4.2,0.4,5,1.3c1,1,2.2,5,2.2,5h1l0-0.4
				c-0.1-1.5-0.1-3-0.1-4.4c0-1.4,0-2.8,0.1-4.2l0-0.3l-0.3-0.1c-2.3-0.5-4.8-0.7-7.4-0.7c-5.5,0-10.8,1.9-14.3,5
				c-4.1,3.6-6.4,8-6.4,13.5c0,5.4,1.9,9.7,5.8,12.8c3.6,2.9,8,4.4,13.5,4.4c3.4,0,6-0.3,9-1.3l0.3-0.1c0,0-0.2-3.3-0.2-8.9h-1.1
				C332.7,514.1,331.9,516.2,331.3,517.6z"/>
		</g>
	</g>
	<path class="st1" d="M355.1,489.2c-5.3,0-9.5,1.7-12.7,5.1c-3.1,3.4-4.7,7.7-4.7,13c0,5,1.5,9.1,4.5,12.4c3.1,3.4,7.1,5.1,12,5.1h0
		c5.2,0,9.4-1.9,12.5-5.7c2.9-3.5,4.4-8,4.3-13.3c0-4.9-1.4-8.9-4.3-11.9C363.9,490.8,359.9,489.2,355.1,489.2z M364.7,508.4
		c0,3.7-0.7,6.8-2.2,9.2c-1.8,2.9-4.3,4.3-7.7,4.3c-3.9,0-6.7-1.9-8.5-5.8c-1.4-2.9-2.1-6.6-2.1-11.1c0-3.5,0.8-6.4,2.5-8.7
		c1.9-2.6,4.5-3.9,7.8-3.9C361.3,492.3,364.7,497.5,364.7,508.4L364.7,508.4z"/>
	<g>
		<path class="st2" d="M408.4,490.3c-1,0.3-1.8,0.7-2.8,1c-1.5,0.6-1.4,2.4-1.5,3.3c-0.3,4.5-0.3,9.1-0.3,15.2c0,1.2,0,5.5,0.2,14.3
			h-3.1c-3.2-4.1-5.6-7.2-9.8-12.9c-3.6-4.8-5.6-8-9.3-13.1l-0.5-0.8c0,0,0.1,7.9,0.1,11.2c0,2.9,0.1,9.3,0.4,11.9
			c0.5,2.2,3.2,2,4.3,2.3l0.1,1.1c-4.6-0.4-9.2-0.4-13.6,0v-1l2.5-0.8c2.4-0.6,2.3-8.7,2.3-17.6l-0.2-10c0-3.1-2.9-3.7-4.7-4.3
			l-0.1-0.9c3.3,0.4,7.4,0.4,10.5,0c2,3.7,5.1,8.5,8.9,13.6c3.1,4.1,5,6.6,8.2,10.7v-2.3c0,0-0.2-11.9-0.2-13.1
			c0-1.8-0.1-4.7-0.5-5.6c-0.6-1.4-1.9-1.6-4.4-2.6l0-0.8c4.2,0.4,8.7,0.4,13.5,0L408.4,490.3z"/>
	</g>
	<g>
		<path class="st1" d="M431.6,509.5l-0.3,0.2L431.6,509.5c-0.1-0.1-0.2-0.3-0.3-0.4l0,0c-1-1.1-2.2-1.9-3.1-2.5
			c-2.2-1.1-4-2-6.4-3.2c-2.7-1.5-4-3.3-4-5.4c0-1.6,0.6-2.9,1.8-4c0.2-0.2,0.4-0.3,0.6-0.5c0,0,0,0,0.2-0.1c0.5-0.3,1-0.5,1.5-0.6
			c0.6-0.2,1.5-0.3,2.4-0.3c0.6,0,1.4,0,2.1,0.1c0.7,0.1,1.3,0.2,2.1,0.5l1.9,5.5l0.9,0l0.3-7.7l-0.2-0.1c-2.5-1.1-5.1-1.7-7.8-1.7
			c-3.1,0-5.8,0.8-8,2.4c-2.5,1.8-3.8,4.3-3.8,7.3c0,1,0.2,1.9,0.5,2.8c1.1,2.6,3.4,4.2,4.5,4.9c0.2,0.1,0.3,0.2,0.4,0.3v0l0.2,0.1
			c2,1.1,3.6,2.3,5.8,3.4c2.8,1.6,4,3.3,4,5.2c0,0.7-0.1,1.3-0.2,1.9l0,0c-1,3.3-4.7,3.6-4.8,3.6c-0.9,0.1-1.7,0.2-2.5,0.2
			c-3,0-5-1.1-5-1.2l-1.1-6.2l-1.1,0.3l-0.2,0.1l-0.9,9l0.2,0.1c2.5,1,5.1,1.5,7.8,1.5c3.7,0,6.8-0.7,9.3-2.2c3.1-1.8,4.6-4.5,4.6-8
			C433.2,512.7,432.7,511,431.6,509.5z"/>
	</g>
	<g>
		<path class="st2" d="M464.8,498.4h-0.8c-1.1-2.9-1.9-4.6-2.4-5.2c-0.6-0.7-1.7-1-3.4-1c-0.3,0-1.1,0-2.1,0.1c-1,0-1.4,0.1-2.1,0.1
			v23.5c0,2.8,0.3,4,0.8,4.7c0.4,0.5,1.5,1.2,4.4,2.2v1c-5.3-0.4-10.6-0.4-15.9,0v-1c2.9-0.9,3.9-1.7,4.4-2.2
			c0.6-0.6,0.8-1.8,0.8-4.7v-23.5c-0.8,0-1.1,0-2.2-0.1c-1.1,0-1.8-0.1-2.1-0.1c-1.6,0-2.8,0.2-3.4,1c-0.5,0.6-1.2,2.3-2.3,5.2h-0.8
			v-9.2c9,0.4,18,0.4,27,0V498.4z"/>
	</g>
	<path class="st2" d="M496.6,515.3c-1.7-2.9-3.5-5.8-5.2-8.7c5.4-1,8-4.1,8-8.9c0-2.9-1.3-5.2-3.9-6.6c-2-1.2-4.6-1.8-7.8-1.8
		c-1.3,0-3.1,0.1-5.5,0.2c-2.4,0.1-4.9,0.1-6.1,0.1c-2,0-3.9-0.1-5.5-0.3l-0.4,0v1.3c0,0,5.1,0.4,5.6,2.7c0.1,0.3,0.1,1.8,0.1,4.1
		v19c0,1.8-0.2,3.2-0.3,3.8c-0.4,1.5-4.5,2.2-4.5,2.2l-0.2,1.2l0.4,0c2.7-0.2,5.4-0.3,8-0.3c2.6,0,5.1,0.1,7.6,0.3l0.4,0v-1.1
		c0,0-3.7-1-5-2.1c-0.5-0.4-0.8-1.1-0.8-2.5c0-0.3,0-1.4,0.1-2.5c0-1.1,0-2,0-2.8v-5.3h3.5c4.1,5.5,7.2,10.6,10.5,16.1l0.3,0.2
		c1.3-0.1,2.7-0.2,4.1-0.2c1.4,0,3,0,4.2,0.2l0.4,0v-1.3C502.1,522.1,499.5,519.7,496.6,515.3z M484.8,504.5h-3.4v-11.9l4.6,0
		c5.1,0,7.3,1.9,7.4,6c0,2.4-0.8,4-2.6,4.9C489.6,504.1,487.5,504.5,484.8,504.5z"/>
	<g>
		<path class="st1" d="M532.9,489.6c-2.3,0-4.6-0.1-6.8-0.3l-0.4,0v1.1c0,0,4.2,0.6,4.9,2.5c0.4,2.1,0.7,5.1,0.7,8.5
			c0,1.2,0,13.4-2,16c-1.4,1.7-3.5,2.9-6.3,2.9c-3.7,0-5.8-1-7.3-2.7c-3.4-4.2-1.7-22.3-1.7-23.6c0-2.5,5.5-3.5,5.5-3.5v-1.2l-0.4,0
			c-2.7,0.2-5.5,0.3-8.3,0.3c-2.8,0-5.5-0.1-8-0.3l-0.4,0v1.2c0,0,5.8,1.2,5.8,4c0,1-0.9,10.7-0.9,14.7c0.1,4.5,0.8,8,2.4,10.4
			c2.2,3.1,7,4.6,12.1,4.6c5.4,0,9.4-1.9,11.5-5.7c1.4-2.6,2-6.5,2-11.7c0-0.3,0-0.5,0-0.8c0-4-0.1-7-0.1-9.2c0-2.1,0-3.4,0.1-3.6
			c0.2-2.5,4.4-3,4.4-3v-1.1l-0.4,0C537.4,489.5,535.2,489.6,532.9,489.6z"/>
	</g>
	<g>
		<g>
			<path class="st1" d="M566.2,517.5c-0.9,1.9-1.5,2.1-1.5,2.1c-1.3,0.6-3,1.1-4.8,1.1c-4.2,0.1-7.8-1.5-9.6-3.7
				c-2.3-3-3-6.4-3.2-10.3c-0.2-4,0.9-7.4,3.1-10.2c2.1-2.7,5.7-4,10.1-4c3,0,4.2,0.4,5,1.3c1,1,2.2,5,2.2,5h1l0-0.4
				c-0.1-1.5-0.1-3-0.1-4.4c0-1.4,0-2.8,0.1-4.2l0-0.3l-0.3-0.1c-2.3-0.5-4.8-0.7-7.4-0.7c-5.5,0-10.8,1.9-14.3,5
				c-4.1,3.6-6.4,8-6.4,13.5c0,5.4,1.9,9.7,5.8,12.8c3.6,2.9,8,4.4,13.5,4.4c3.4,0,6-0.3,9-1.3l0.3-0.1c0,0-0.2-3.3-0.2-8.9h-1.1
				C567.6,514.1,566.9,516.1,566.2,517.5z"/>
		</g>
	</g>
	<g>
		<path class="st2" d="M599.8,498.5h-0.8c-1.1-2.9-1.9-4.6-2.4-5.2c-0.6-0.7-1.7-1-3.4-1c-0.3,0-1.1,0-2.1,0.1c-1,0-1.4,0.1-2.1,0.1
			V516c0,2.8,0.3,4,0.8,4.7c0.4,0.5,1.5,1.2,4.4,2.2v1c-5.3-0.4-10.6-0.4-15.9,0v-1c2.9-0.9,3.9-1.7,4.4-2.2
			c0.6-0.6,0.8-1.8,0.8-4.7v-23.5c-0.8,0-1.1,0-2.2-0.1c-1.1,0-1.8-0.1-2.1-0.1c-1.6,0-2.8,0.2-3.4,1c-0.5,0.6-1.2,2.3-2.3,5.2h-0.8
			v-9.2c9,0.4,18,0.4,27,0V498.5z"/>
	</g>
	<path class="st1" d="M619.6,489.2c-5.3,0-9.5,1.7-12.7,5.1c-3.1,3.4-4.7,7.7-4.7,13c0,5,1.5,9.1,4.5,12.4c3.1,3.4,7.1,5.1,12,5.1h0
		c5.2,0,9.4-1.9,12.5-5.7c2.9-3.5,4.4-8,4.3-13.3c0-4.9-1.4-8.9-4.3-11.9C628.4,490.8,624.5,489.2,619.6,489.2z M629.2,508.4
		c0,3.7-0.7,6.8-2.2,9.2c-1.8,2.9-4.3,4.3-7.7,4.3c-3.9,0-6.7-1.9-8.5-5.8c-1.4-2.9-2.1-6.6-2.1-11.1c0-3.5,0.8-6.4,2.5-8.7
		c1.9-2.6,4.5-3.9,7.8-3.9C625.8,492.3,629.2,497.5,629.2,508.4L629.2,508.4z"/>
	<path class="st2" d="M663.5,515.4c-1.8-2.9-3.5-5.8-5.3-8.7c5.5-1,8.1-4.1,8.1-8.9c0-3-1.3-5.2-3.9-6.7c-2.1-1.2-4.7-1.8-7.8-1.8
		c-1.3,0-3.1,0-5.6,0.2c-2.4,0.1-4.9,0.1-6.1,0.1c-2.1,0-3.9-0.1-5.6-0.3l-0.4,0v1.4c0,0,5.1,0.4,5.6,2.8c0.1,0.3,0.1,1.8,0.1,4.2
		v19.2c0,1.8-0.2,3.2-0.3,3.8c-0.4,1.5-4.5,2.2-4.5,2.2l-0.2,1.2l0.4,0c2.8-0.2,5.5-0.3,8.1-0.3c2.6,0,5.2,0.1,7.7,0.3l0.4,0v-1.1
		c0,0-3.7-1-5-2.1c-0.5-0.4-0.8-1.1-0.8-2.5c0-0.3,0-1.4,0.1-2.5c0-1.1,0-2,0-2.8v-5.4h3.5c4.2,5.5,7.3,10.7,10.5,16.2l0.3,0.2
		c1.3-0.1,2.7-0.2,4.1-0.2c1.4,0,3,0,4.2,0.2l0.4,0v-1.3C669.1,522.2,666.5,519.8,663.5,515.4z M651.7,504.4h-3.4v-12l4.6,0
		c5.2,0,7.4,1.9,7.4,6c0,2.5-0.9,4-2.6,5C656.5,504.1,654.4,504.4,651.7,504.4z"/>
	<path class="st2" d="M685.9,510.6l5-12.6l4.8,12.6L685.9,510.6z M693.5,489.4l-0.1-0.2h-2.4l-0.1,0.2c-5.2,12.3-6.9,16.3-11.3,26.5
		c-0.7,1.5-1,2.7-1.7,4c-0.9,1.7-4.1,2.6-4.1,2.6v1.3l0.4,0c1.9-0.2,3.8-0.3,5.7-0.3c1.9,0,3.8,0.1,5.8,0.3l0.4,0v-1.3l-4.2-1.6
		c1.4-3.7,2.3-6,3.2-8l5.6,0l6.2,0.1c0.9,1.9,1.7,4.7,2.7,8c-1.5,0.6-3,1.1-4.6,1.4l-0.2,0.1v1.3l0.3,0c2.2-0.2,4.6-0.3,7.1-0.3
		c2.5,0,5.1,0.1,7.7,0.3l0.3,0v-1.3c0,0-2.9-0.8-3.9-1.8c-0.7-0.7-1.8-3.9-1.8-3.9C697.7,500.3,695.2,493.8,693.5,489.4z"/>
</g>
</svg>
